# xmcd CD database file generated by Grip 3.1.4
# 
# Track frame offsets:
#       150
#       17869
#       33071
#       50024
#       63545
#       78123
#       95898
#       114272
#       130922
#       144598
#       159977
#       179669
#       194258
#       224355
# 
# Disc length: 3313 seconds
# 
# Revision: 1
# Processed by: cddbd v1.4PL0 Copyright (c) Steve Scherf et al.
# Submitted via: Grip 3.1.4
# 
DISCID=c40cef0e
DTITLE=Räuber - Laach doch ens
DYEAR=2004
DGENRE=Blues
TTITLE0=Hück oder nie Marie
TTITLE1=Ich habe was, was du nicht hast
TTITLE2=Laach doch ens
TTITLE3=Is ja nit schlimm
TTITLE4=Kleine Trumm
TTITLE5=Und sie war nicht viel älter als 18 Jahr
TTITLE6=Mir singe kölsch
TTITLE7=Dann es Karneval
TTITLE8=Wo bleibt der Wein
TTITLE9=Tango mit Klaus-Dieter
TTITLE10=Dat wor unser Veedel Jestern
TTITLE11=Hamburger Deern
TTITLE12=Alles weg'n de Leut (live)
TTITLE13=DATA
EXTD=
EXTT0=
EXTT1=
EXTT2=
EXTT3=
EXTT4=
EXTT5=
EXTT6=
EXTT7=
EXTT8=
EXTT9=
EXTT10=
EXTT11=
EXTT12=
EXTT13=
PLAYORDER=
